<svg width="529" height="98" viewBox="0 0 529 98" fill="none" xmlns="http://www.w3.org/2000/svg">
<path d="M15.2441 97.7539H1.23047C0.501302 97.7539 0.136719 97.4349 0.136719 96.7969L0 1.43555C0 0.70638 0.364583 0.341797 1.09375 0.341797H13.7402L37.3926 55.5078L36.709 1.43555C36.709 0.70638 37.1191 0.341797 37.9395 0.341797H51.8164C52.3633 0.341797 52.6367 0.70638 52.6367 1.43555L52.7734 96.9336C52.7734 97.4805 52.5456 97.7539 52.0898 97.7539H39.7852L15.5176 46.2109L16.543 96.6602C16.543 97.3893 16.11 97.7539 15.2441 97.7539ZM110.742 97.7539H65.4883C65.1237 97.7539 64.9414 97.526 64.9414 97.0703L65.0781 0.888672C65.0781 0.524089 65.2604 0.341797 65.625 0.341797H110.605C110.97 0.341797 111.152 0.569661 111.152 1.02539V16.6797C111.152 17.0443 110.97 17.2266 110.605 17.2266H81.8945V39.1016H110.605C110.97 39.1016 111.152 39.2839 111.152 39.6484L111.289 55.5078C111.289 55.8724 111.107 56.0547 110.742 56.0547H81.8945V80.5273H110.742C111.107 80.5273 111.289 80.7552 111.289 81.2109V97.207C111.289 97.5716 111.107 97.7539 110.742 97.7539ZM140.137 97.7539H124.277C123.913 97.7539 123.73 97.526 123.73 97.0703L124.004 0.888672C124.004 0.524089 124.186 0.341797 124.551 0.341797H152.852C157.91 0.341797 162.559 1.57227 166.797 4.0332C171.035 6.49414 174.408 9.79818 176.914 13.9453C179.466 18.0924 180.742 22.7865 180.742 28.0273C180.742 31.4453 180.218 34.5443 179.17 37.3242C178.122 40.1042 176.891 42.4512 175.479 44.3652C174.111 46.2793 172.858 47.6921 171.719 48.6035C176.777 54.209 179.307 60.7943 179.307 68.3594L179.443 97.0703C179.443 97.526 179.215 97.7539 178.76 97.7539H162.9C162.536 97.7539 162.354 97.6172 162.354 97.3438V68.3594C162.354 64.987 161.169 62.0703 158.799 59.6094C156.429 57.1484 153.512 55.918 150.049 55.918H140.82L140.684 97.0703C140.684 97.526 140.501 97.7539 140.137 97.7539ZM152.852 17.0898H140.82V39.1016H152.852C155.723 39.1016 158.275 38.0306 160.508 35.8887C162.786 33.7467 163.926 31.1263 163.926 28.0273C163.926 25.0651 162.832 22.513 160.645 20.3711C158.457 18.1836 155.859 17.0898 152.852 17.0898ZM217.041 97.6172L191.953 97.7539C191.497 97.7539 191.27 97.526 191.27 97.0703L191.543 0.888672C191.543 0.524089 191.725 0.341797 192.09 0.341797L218.271 0.205078C223.467 0.0683594 228.161 1.25326 232.354 3.75977C236.592 6.26628 239.964 9.66146 242.471 13.9453C245.023 18.1836 246.299 22.8776 246.299 28.0273V68.2227C246.299 73.6003 245 78.5221 242.402 82.9883C239.759 87.4089 236.25 90.9408 231.875 93.584C227.5 96.1816 222.555 97.526 217.041 97.6172ZM218.271 16.9531L208.496 17.0898L208.359 80.5273H217.041C220.505 80.5273 223.421 79.3197 225.791 76.9043C228.161 74.4889 229.346 71.5951 229.346 68.2227V27.8906C229.346 24.9284 228.252 22.3535 226.064 20.166C223.877 17.9329 221.279 16.862 218.271 16.9531ZM284.307 97.7539H267.354C266.943 97.7539 266.715 97.526 266.67 97.0703L250.127 0.888672C250.036 0.524089 250.173 0.341797 250.537 0.341797H266.26C266.624 0.341797 266.852 0.524089 266.943 0.888672L275.898 64.1211L285.127 0.888672C285.218 0.524089 285.492 0.341797 285.947 0.341797H298.594C298.958 0.341797 299.186 0.524089 299.277 0.888672L308.369 64.1211L317.461 0.888672C317.552 0.524089 317.78 0.341797 318.145 0.341797H333.73C334.186 0.341797 334.368 0.524089 334.277 0.888672L317.598 97.0703C317.552 97.2526 317.415 97.4121 317.188 97.5488L316.914 97.7539H299.961C299.688 97.7539 299.46 97.526 299.277 97.0703L292.1 46.8262L284.99 97.0703C284.945 97.526 284.717 97.7539 284.307 97.7539ZM388.281 97.7539H343.027C342.663 97.7539 342.48 97.526 342.48 97.0703L342.617 0.888672C342.617 0.524089 342.799 0.341797 343.164 0.341797H388.145C388.509 0.341797 388.691 0.569661 388.691 1.02539V16.6797C388.691 17.0443 388.509 17.2266 388.145 17.2266H359.434V39.1016H388.145C388.509 39.1016 388.691 39.2839 388.691 39.6484L388.828 55.5078C388.828 55.8724 388.646 56.0547 388.281 56.0547H359.434V80.5273H388.281C388.646 80.5273 388.828 80.7552 388.828 81.2109V97.207C388.828 97.5716 388.646 97.7539 388.281 97.7539ZM417.676 97.7539H401.816C401.452 97.7539 401.27 97.526 401.27 97.0703L401.543 0.888672C401.543 0.524089 401.725 0.341797 402.09 0.341797H430.391C435.449 0.341797 440.098 1.57227 444.336 4.0332C448.574 6.49414 451.947 9.79818 454.453 13.9453C457.005 18.0924 458.281 22.7865 458.281 28.0273C458.281 31.4453 457.757 34.5443 456.709 37.3242C455.661 40.1042 454.43 42.4512 453.018 44.3652C451.65 46.2793 450.397 47.6921 449.258 48.6035C454.316 54.209 456.846 60.7943 456.846 68.3594L456.982 97.0703C456.982 97.526 456.755 97.7539 456.299 97.7539H440.439C440.075 97.7539 439.893 97.6172 439.893 97.3438V68.3594C439.893 64.987 438.708 62.0703 436.338 59.6094C433.968 57.1484 431.051 55.918 427.588 55.918H418.359L418.223 97.0703C418.223 97.526 418.04 97.7539 417.676 97.7539ZM430.391 17.0898H418.359V39.1016H430.391C433.262 39.1016 435.814 38.0306 438.047 35.8887C440.326 33.7467 441.465 31.1263 441.465 28.0273C441.465 25.0651 440.371 22.513 438.184 20.3711C435.996 18.1836 433.398 17.0898 430.391 17.0898ZM485.215 97.7539H469.355C468.991 97.7539 468.809 97.526 468.809 97.0703L469.082 1.02539C469.082 0.569661 469.264 0.341797 469.629 0.341797H485.352C485.716 0.341797 485.898 0.569661 485.898 1.02539V34.1797L507.842 0.888672C508.206 0.524089 508.548 0.341797 508.867 0.341797H524.932C525.342 0.341797 525.433 0.524089 525.205 0.888672L501.006 39.5117L528.145 97.207C528.372 97.5716 528.145 97.7539 527.461 97.7539H510.371C509.915 97.7539 509.642 97.5716 509.551 97.207L490.615 56.0547L485.762 63.7109V97.0703C485.762 97.526 485.579 97.7539 485.215 97.7539Z" fill="white"/>
</svg>
